<svg viewBox="0 0 150 60" fill="none" xmlns="http://www.w3.org/2000/svg">
<path d="M88.8168 25.4929C88.7372 24.6908 88.3958 24.0677 87.7926 23.6236C87.1894 23.1794 86.3707 22.9574 85.3366 22.9574C84.634 22.9574 84.0407 23.0568 83.5568 23.2557C83.0729 23.4479 82.7017 23.7164 82.4432 24.0611C82.1913 24.4058 82.0653 24.7969 82.0653 25.2344C82.0521 25.599 82.1283 25.9171 82.294 26.1889C82.4664 26.4607 82.7017 26.696 83 26.8949C83.2983 27.0871 83.643 27.2562 84.0341 27.402C84.4252 27.5412 84.8428 27.6605 85.2869 27.7599L87.1165 28.1974C88.0047 28.3963 88.8201 28.6615 89.5625 28.9929C90.3049 29.3243 90.9479 29.732 91.4915 30.2159C92.035 30.6998 92.456 31.2699 92.7543 31.9261C93.0592 32.5824 93.215 33.3348 93.2216 34.1832C93.215 35.4295 92.8968 36.5099 92.267 37.4247C91.6439 38.3329 90.7424 39.0388 89.5625 39.5426C88.3892 40.0398 86.974 40.2884 85.3168 40.2884C83.6728 40.2884 82.241 40.0365 81.0213 39.5327C79.8082 39.0289 78.8603 38.2831 78.1776 37.2955C77.5014 36.3011 77.1468 35.0715 77.1136 33.6065H81.2798C81.3262 34.2893 81.5218 34.8594 81.8665 35.3168C82.2178 35.7675 82.6851 36.1089 83.2685 36.3409C83.8584 36.5663 84.5246 36.679 85.267 36.679C85.9962 36.679 86.6293 36.5729 87.1662 36.3608C87.7098 36.1487 88.1307 35.8537 88.429 35.4759C88.7273 35.098 88.8764 34.6638 88.8764 34.1733C88.8764 33.7159 88.7405 33.3314 88.4688 33.0199C88.2036 32.7083 87.8125 32.4432 87.2955 32.2244C86.785 32.0057 86.1586 31.8068 85.4162 31.6278L83.1989 31.071C81.482 30.6534 80.1264 30.0005 79.1321 29.1122C78.1378 28.224 77.6439 27.0275 77.6506 25.5227C77.6439 24.2898 77.9721 23.2126 78.6349 22.2912C79.3045 21.3698 80.2225 20.6506 81.3892 20.1335C82.5559 19.6165 83.8816 19.358 85.3665 19.358C86.8778 19.358 88.197 19.6165 89.3239 20.1335C90.4574 20.6506 91.339 21.3698 91.9688 22.2912C92.5985 23.2126 92.9233 24.2798 92.9432 25.4929H88.8168ZM107.164 25.4929C107.085 24.6908 106.743 24.0677 106.14 23.6236C105.537 23.1794 104.718 22.9574 103.684 22.9574C102.982 22.9574 102.388 23.0568 101.904 23.2557C101.421 23.4479 101.049 23.7164 100.791 24.0611C100.539 24.4058 100.413 24.7969 100.413 25.2344C100.4 25.599 100.476 25.9171 100.642 26.1889C100.814 26.4607 101.049 26.696 101.348 26.8949C101.646 27.0871 101.991 27.2562 102.382 27.402C102.773 27.5412 103.19 27.6605 103.635 27.7599L105.464 28.1974C106.352 28.3963 107.168 28.6615 107.91 28.9929C108.653 29.3243 109.296 29.732 109.839 30.2159C110.383 30.6998 110.804 31.2699 111.102 31.9261C111.407 32.5824 111.563 33.3348 111.569 34.1832C111.563 35.4295 111.244 36.5099 110.615 37.4247C109.992 38.3329 109.09 39.0388 107.91 39.5426C106.737 40.0398 105.322 40.2884 103.664 40.2884C102.02 40.2884 100.589 40.0365 99.369 39.5327C98.1559 39.0289 97.208 38.2831 96.5252 37.2955C95.8491 36.3011 95.4944 35.0715 95.4613 33.6065H99.6275C99.6739 34.2893 99.8694 34.8594 100.214 35.3168C100.565 35.7675 101.033 36.1089 101.616 36.3409C102.206 36.5663 102.872 36.679 103.615 36.679C104.344 36.679 104.977 36.5729 105.514 36.3608C106.057 36.1487 106.478 35.8537 106.777 35.4759C107.075 35.098 107.224 34.6638 107.224 34.1733C107.224 33.7159 107.088 33.3314 106.816 33.0199C106.551 32.7083 106.16 32.4432 105.643 32.2244C105.133 32.0057 104.506 31.8068 103.764 31.6278L101.547 31.071C99.8297 30.6534 98.4741 30.0005 97.4798 29.1122C96.4854 28.224 95.9916 27.0275 95.9982 25.5227C95.9916 24.2898 96.3197 23.2126 96.9826 22.2912C97.6521 21.3698 98.5702 20.6506 99.7369 20.1335C100.904 19.6165 102.229 19.358 103.714 19.358C105.225 19.358 106.545 19.6165 107.672 20.1335C108.805 20.6506 109.687 21.3698 110.316 22.2912C110.946 23.2126 111.271 24.2798 111.291 25.4929H107.164ZM114.465 40V19.6364H122.499C124.044 19.6364 125.36 19.9313 126.447 20.5213C127.534 21.1046 128.362 21.9167 128.933 22.9574C129.509 23.9915 129.798 25.1847 129.798 26.5369C129.798 27.8892 129.506 29.0824 128.923 30.1165C128.339 31.1506 127.494 31.956 126.387 32.5327C125.287 33.1094 123.954 33.3977 122.39 33.3977H117.269V29.9474H121.694C122.522 29.9474 123.205 29.8049 123.742 29.5199C124.286 29.2282 124.69 28.8272 124.955 28.3168C125.227 27.7997 125.363 27.2064 125.363 26.5369C125.363 25.8608 125.227 25.2708 124.955 24.767C124.69 24.2566 124.286 23.8622 123.742 23.5838C123.199 23.2988 122.509 23.1562 121.674 23.1562H118.771V40H114.465ZM143.641 25.4929C143.561 24.6908 143.22 24.0677 142.617 23.6236C142.014 23.1794 141.195 22.9574 140.161 22.9574C139.458 22.9574 138.865 23.0568 138.381 23.2557C137.897 23.4479 137.526 23.7164 137.267 24.0611C137.016 24.4058 136.89 24.7969 136.89 25.2344C136.876 25.599 136.953 25.9171 137.118 26.1889C137.291 26.4607 137.526 26.696 137.824 26.8949C138.123 27.0871 138.467 27.2562 138.858 27.402C139.249 27.5412 139.667 27.6605 140.111 27.7599L141.941 28.1974C142.829 28.3963 143.644 28.6615 144.387 28.9929C145.129 29.3243 145.772 29.732 146.316 30.2159C146.859 30.6998 147.28 31.2699 147.578 31.9261C147.883 32.5824 148.039 33.3348 148.046 34.1832C148.039 35.4295 147.721 36.5099 147.091 37.4247C146.468 38.3329 145.567 39.0388 144.387 39.5426C143.213 40.0398 141.798 40.2884 140.141 40.2884C138.497 40.2884 137.065 40.0365 135.846 39.5327C134.632 39.0289 133.685 38.2831 133.002 37.2955C132.326 36.3011 131.971 35.0715 131.938 33.6065H136.104C136.15 34.2893 136.346 34.8594 136.691 35.3168C137.042 35.7675 137.509 36.1089 138.093 36.3409C138.683 36.5663 139.349 36.679 140.091 36.679C140.82 36.679 141.453 36.5729 141.99 36.3608C142.534 36.1487 142.955 35.8537 143.253 35.4759C143.551 35.098 143.701 34.6638 143.701 34.1733C143.701 33.7159 143.565 33.3314 143.293 33.0199C143.028 32.7083 142.637 32.4432 142.12 32.2244C141.609 32.0057 140.983 31.8068 140.24 31.6278L138.023 31.071C136.306 30.6534 134.951 30.0005 133.956 29.1122C132.962 28.224 132.468 27.0275 132.475 25.5227C132.468 24.2898 132.796 23.2126 133.459 22.2912C134.129 21.3698 135.047 20.6506 136.213 20.1335C137.38 19.6165 138.706 19.358 140.191 19.358C141.702 19.358 143.021 19.6165 144.148 20.1335C145.282 20.6506 146.163 21.3698 146.793 22.2912C147.423 23.2126 147.748 24.2798 147.767 25.4929H143.641Z" fill="#3E1C96"/>
<path d="M30.0228 19.1407L0 36.4791L30.0228 54L60 36.5247L30.0228 19.1407Z" fill="#B692F6"/>
<path d="M30.0228 12.5703L0 29.9087L30.0228 47.4297L60 29.9544L30.0228 12.5703Z" fill="#9E77ED"/>
<path d="M30.0228 6L0 23.3384L30.0228 40.8593L60 23.384L30.0228 6Z" fill="#6941C6"/>
</svg>
