<svg width="60" height="60" viewBox="0 0 60 60" fill="none" xmlns="http://www.w3.org/2000/svg">
<rect width="60" height="60" rx="15" fill="url(#paint0_radial_183_219)" fill-opacity="0.15"/>
<g clip-path="url(#clip0_183_219)">
<path d="M36.3016 20.862C32.7334 17.6926 27.1271 17.5634 23.4172 21.1365C21.9222 22.5763 20.9299 24.4679 20.6232 26.4629C20.2397 28.957 20.8252 31.4434 22.2716 33.4644C26.2282 38.992 25.7262 43.3825 25.7813 43.7082C25.7813 44.8638 26.218 45.9438 27.0111 46.7495C27.8049 47.5559 28.8664 48 30 48C32.3262 48 34.2188 46.1075 34.2188 43.7812C34.267 43.4811 33.7892 38.6618 37.571 33.678C38.8278 32.0216 39.4922 30.0447 39.4922 27.9609C39.4922 25.2506 38.3292 22.6631 36.3016 20.862ZM30 45.8906C28.8409 45.8906 27.9285 44.9698 27.8924 43.7812H32.1094C32.1094 44.9443 31.1631 45.8906 30 45.8906ZM35.8906 32.4028C33.7802 35.184 32.5194 38.3588 32.1943 41.6719H27.7949C27.4461 38.4845 26.1475 35.2551 23.987 32.2366C22.863 30.6663 22.4089 28.7297 22.7081 26.7835C23.2209 23.4485 26.205 20.5775 30.0098 20.5775C34.1344 20.5775 37.3828 23.9449 37.3828 27.9609C37.3828 29.5804 36.8668 31.1163 35.8906 32.4028Z" fill="#593EFF"/>
<path d="M30 16.3594C30.5825 16.3594 31.0547 15.8871 31.0547 15.3047V13.0547C31.0547 12.4722 30.5825 12 30 12C29.4175 12 28.9453 12.4722 28.9453 13.0547V15.3047C28.9453 15.8871 29.4175 16.3594 30 16.3594Z" fill="#593EFF"/>
<path d="M41.488 22.5462L43.3147 21.4915C43.8191 21.2002 43.992 20.5552 43.7007 20.0508C43.4095 19.5463 42.7644 19.3735 42.26 19.6648L40.4333 20.7194C39.9289 21.0107 39.7561 21.6557 40.0473 22.1602C40.3399 22.6671 40.9859 22.8361 41.488 22.5462Z" fill="#593EFF"/>
<path d="M18.512 33.3757L16.6853 34.4304C16.1809 34.7216 16.008 35.3667 16.2993 35.8711C16.592 36.378 17.2379 36.547 17.74 36.2571L19.5667 35.2024C20.0711 34.9112 20.2439 34.2661 19.9527 33.7617C19.6615 33.2572 19.0164 33.0845 18.512 33.3757Z" fill="#593EFF"/>
<path d="M35.8008 17.9136C36.3029 18.2036 36.949 18.0343 37.2415 17.5276L38.2961 15.7009C38.5874 15.1965 38.4146 14.5514 37.9101 14.2602C37.4057 13.9688 36.7606 14.1417 36.4694 14.6462L35.4148 16.4729C35.1235 16.9774 35.2963 17.6224 35.8008 17.9136Z" fill="#593EFF"/>
<path d="M22.7585 17.5276C23.0512 18.0346 23.6972 18.2035 24.1992 17.9136C24.7036 17.6224 24.8765 16.9774 24.5852 16.4729L23.5305 14.6462C23.2393 14.1418 22.5943 13.9689 22.0898 14.2602C21.5854 14.5514 21.4126 15.1965 21.7038 15.7009L22.7585 17.5276Z" fill="#593EFF"/>
<path d="M43.3147 34.4304L41.488 33.3757C40.9835 33.0844 40.3384 33.2573 40.0473 33.7617C39.7561 34.2661 39.9289 34.9112 40.4333 35.2024L42.26 36.2571C42.7621 36.5471 43.4082 36.3778 43.7007 35.8711C43.992 35.3667 43.8192 34.7216 43.3147 34.4304Z" fill="#593EFF"/>
<path d="M19.5667 20.7195L17.74 19.6648C17.2355 19.3734 16.5905 19.5464 16.2993 20.0508C16.008 20.5552 16.1809 21.2002 16.6853 21.4915L18.512 22.5462C19.0141 22.8361 19.6602 22.6668 19.9527 22.1602C20.244 21.6557 20.0712 21.0107 19.5667 20.7195Z" fill="#593EFF"/>
<path d="M44.7656 26.9062H42.6562C42.0738 26.9062 41.6016 27.3785 41.6016 27.9609C41.6016 28.5434 42.0738 29.0156 42.6562 29.0156H44.7656C45.3481 29.0156 45.8203 28.5434 45.8203 27.9609C45.8203 27.3785 45.3481 26.9062 44.7656 26.9062Z" fill="#593EFF"/>
<path d="M18.3984 27.9609C18.3984 27.3785 17.9262 26.9062 17.3437 26.9062H15.2344C14.6519 26.9062 14.1797 27.3785 14.1797 27.9609C14.1797 28.5434 14.6519 29.0156 15.2344 29.0156H17.3437C17.9262 29.0156 18.3984 28.5434 18.3984 27.9609Z" fill="#593EFF"/>
<path d="M31.3636 27.2152L30 28.5788L28.6364 27.2152C28.2245 26.8033 27.5567 26.8033 27.1448 27.2152C26.7329 27.6271 26.7329 28.2948 27.1448 28.7067L28.9453 30.5071V34.289C28.9453 34.8715 29.4175 35.3437 30 35.3437C30.5825 35.3437 31.0547 34.8715 31.0547 34.289V30.5071L32.8551 28.7067C33.267 28.2948 33.267 27.6271 32.8551 27.2152C32.4433 26.8032 31.7754 26.8032 31.3636 27.2152Z" fill="#593EFF"/>
</g>
<defs>
<radialGradient id="paint0_radial_183_219" cx="0" cy="0" r="1" gradientUnits="userSpaceOnUse" gradientTransform="translate(30.3529 29.6471) scale(29.6471)">
<stop stop-color="#5E44FF"/>
<stop offset="1" stop-color="#5E44FF" stop-opacity="0.7"/>
</radialGradient>
<clipPath id="clip0_183_219">
<rect width="36" height="36" fill="white" transform="translate(12 12)"/>
</clipPath>
</defs>
</svg>
