<svg width="24" height="25" viewBox="0 0 24 25" fill="none" xmlns="http://www.w3.org/2000/svg">
<g id="plus.circle">
<g id="Group">
<path id="Vector" d="M11.9531 24.706C18.4922 24.706 23.9062 19.2803 23.9062 12.7529C23.9062 6.21386 18.4805 0.799805 11.9414 0.799805C5.41406 0.799805 0 6.21386 0 12.7529C0 19.2803 5.42578 24.706 11.9531 24.706ZM11.9531 22.7139C6.42188 22.7139 2.00391 18.2842 2.00391 12.7529C2.00391 7.22168 6.41016 2.79199 11.9414 2.79199C17.4727 2.79199 21.9141 7.22168 21.9141 12.7529C21.9141 18.2842 17.4844 22.7139 11.9531 22.7139Z" fill="#6941C6"/>
<path id="Vector_2" d="M6.51562 12.7529C6.51562 13.3271 6.91406 13.7139 7.51172 13.7139H10.957V17.1709C10.957 17.7568 11.3555 18.167 11.9297 18.167C12.5156 18.167 12.9258 17.7686 12.9258 17.1709V13.7139H16.3828C16.9688 13.7139 17.3789 13.3271 17.3789 12.7529C17.3789 12.167 16.9688 11.7568 16.3828 11.7568H12.9258V8.31152C12.9258 7.71386 12.5156 7.30371 11.9297 7.30371C11.3555 7.30371 10.957 7.71386 10.957 8.31152V11.7568H7.51172C6.91406 11.7568 6.51562 12.167 6.51562 12.7529Z" fill="#6941C6"/>
</g>
</g>
</svg>
